<?xml version="1.0" encoding="us-ascii" standalone="no"?><svg xmlns="http://www.w3.org/2000/svg" xmlns:xlink="http://www.w3.org/1999/xlink" contentStyleType="text/css" height="389px" preserveAspectRatio="none" style="width:928px;height:389px;background:#FFFFFF;" version="1.1" viewBox="0 0 928 389" width="928px" zoomAndPan="magnify"><defs/><g><!--class ITypeTransportation--><g id="elem_ITypeTransportation"><rect codeLine="3" fill="#F1F1F1" height="85.2422" id="ITypeTransportation" rx="2.5" ry="2.5" style="stroke:#181818;stroke-width:0.5;" width="161" x="237" y="7"/><ellipse cx="252" cy="23" fill="#B4A7E5" rx="11" ry="11" style="stroke:#181818;stroke-width:1.0;"/><path d="M252.9531,19.6406 L252.9531,26.2969 L254.6719,26.2969 Q255.2813,26.2969 255.5469,26.5313 Q255.8125,26.7656 255.8125,27.1563 Q255.8125,27.5313 255.5469,27.7656 Q255.2813,28 254.6719,28 L249.5313,28 Q248.9219,28 248.6563,27.7656 Q248.3906,27.5313 248.3906,27.1406 Q248.3906,26.7656 248.6563,26.5313 Q248.9219,26.2969 249.5313,26.2969 L251.25,26.2969 L251.25,19.6406 L249.5313,19.6406 Q248.9219,19.6406 248.6563,19.4063 Q248.3906,19.1719 248.3906,18.7813 Q248.3906,18.4063 248.6563,18.1719 Q248.9219,17.9375 249.5313,17.9375 L254.6719,17.9375 Q255.2813,17.9375 255.5469,18.1719 Q255.8125,18.4063 255.8125,18.7813 Q255.8125,19.1719 255.5469,19.4063 Q255.2813,19.6406 254.6719,19.6406 L252.9531,19.6406 Z " fill="#000000"/><text fill="#000000" font-family="sans-serif" font-size="14" font-style="italic" lengthAdjust="spacing" textLength="129" x="266" y="28.7969">ITypeTransportation</text><line style="stroke:#181818;stroke-width:0.5;" x1="238" x2="397" y1="39" y2="39"/><line style="stroke:#181818;stroke-width:0.5;" x1="238" x2="397" y1="47" y2="47"/><ellipse cx="248" cy="61.8105" fill="#84BE84" rx="3" ry="3" style="stroke:#038048;stroke-width:1.0;"/><text fill="#000000" font-family="sans-serif" font-size="14" font-style="italic" lengthAdjust="spacing" textLength="98" x="257" y="66.1074">Loading() : void</text><ellipse cx="248" cy="80.4316" fill="#84BE84" rx="3" ry="3" style="stroke:#038048;stroke-width:1.0;"/><text fill="#000000" font-family="sans-serif" font-size="14" font-style="italic" lengthAdjust="spacing" textLength="111" x="257" y="84.7285">Unloading() : void</text></g><!--class PassengerTransportation--><g id="elem_PassengerTransportation"><rect codeLine="9" fill="#F1F1F1" height="85.2422" id="PassengerTransportation" rx="2.5" ry="2.5" style="stroke:#181818;stroke-width:0.5;" width="193" x="7" y="152"/><ellipse cx="22" cy="168" fill="#ADD1B2" rx="11" ry="11" style="stroke:#181818;stroke-width:1.0;"/><path d="M24.7656,163.875 Q24.9219,163.6563 25.1094,163.5469 Q25.2969,163.4375 25.5156,163.4375 Q25.8906,163.4375 26.125,163.7031 Q26.3594,163.9531 26.3594,164.5625 L26.3594,166.0156 Q26.3594,166.625 26.125,166.8906 Q25.8906,167.1563 25.5156,167.1563 Q25.1719,167.1563 24.9688,166.9531 Q24.7656,166.7656 24.6563,166.25 Q24.6094,165.8906 24.4219,165.7031 Q24.0938,165.3281 23.4844,165.1094 Q22.875,164.8906 22.25,164.8906 Q21.4844,164.8906 20.8438,165.2188 Q20.2188,165.5469 19.7188,166.2969 Q19.2344,167.0469 19.2344,168.0781 L19.2344,169.1719 Q19.2344,170.4063 20.125,171.2344 Q21.0156,172.0469 22.6094,172.0469 Q23.5469,172.0469 24.2031,171.7969 Q24.5938,171.6406 25.0156,171.2031 Q25.2813,170.9375 25.4219,170.8594 Q25.5781,170.7813 25.7813,170.7813 Q26.1094,170.7813 26.3594,171.0469 Q26.625,171.2969 26.625,171.6406 Q26.625,171.9844 26.2813,172.3906 Q25.7813,172.9688 24.9844,173.2969 Q23.9063,173.75 22.6094,173.75 Q21.0938,173.75 19.8906,173.125 Q18.9063,172.625 18.2188,171.5625 Q17.5313,170.4844 17.5313,169.2031 L17.5313,168.0469 Q17.5313,166.7188 18.1406,165.5781 Q18.7656,164.4219 19.8594,163.8125 Q20.9531,163.1875 22.1875,163.1875 Q22.9219,163.1875 23.5625,163.3594 Q24.2188,163.5156 24.7656,163.875 Z " fill="#000000"/><text fill="#000000" font-family="sans-serif" font-size="14" lengthAdjust="spacing" textLength="161" x="36" y="173.7969">PassengerTransportation</text><line style="stroke:#181818;stroke-width:0.5;" x1="8" x2="199" y1="184" y2="184"/><line style="stroke:#181818;stroke-width:0.5;" x1="8" x2="199" y1="192" y2="192"/><ellipse cx="18" cy="206.8105" fill="#84BE84" rx="3" ry="3" style="stroke:#038048;stroke-width:1.0;"/><text fill="#000000" font-family="sans-serif" font-size="14" lengthAdjust="spacing" textLength="99" x="27" y="211.1074">Loading() : void</text><ellipse cx="18" cy="225.4316" fill="#84BE84" rx="3" ry="3" style="stroke:#038048;stroke-width:1.0;"/><text fill="#000000" font-family="sans-serif" font-size="14" lengthAdjust="spacing" textLength="111" x="27" y="229.7285">Unloading() : void</text></g><!--class CargoTransportation--><g id="elem_CargoTransportation"><rect codeLine="15" fill="#F1F1F1" height="85.2422" id="CargoTransportation" rx="2.5" ry="2.5" style="stroke:#181818;stroke-width:0.5;" width="164" x="235.5" y="152"/><ellipse cx="250.5" cy="168" fill="#ADD1B2" rx="11" ry="11" style="stroke:#181818;stroke-width:1.0;"/><path d="M253.2656,163.875 Q253.4219,163.6563 253.6094,163.5469 Q253.7969,163.4375 254.0156,163.4375 Q254.3906,163.4375 254.625,163.7031 Q254.8594,163.9531 254.8594,164.5625 L254.8594,166.0156 Q254.8594,166.625 254.625,166.8906 Q254.3906,167.1563 254.0156,167.1563 Q253.6719,167.1563 253.4688,166.9531 Q253.2656,166.7656 253.1563,166.25 Q253.1094,165.8906 252.9219,165.7031 Q252.5938,165.3281 251.9844,165.1094 Q251.375,164.8906 250.75,164.8906 Q249.9844,164.8906 249.3438,165.2188 Q248.7188,165.5469 248.2188,166.2969 Q247.7344,167.0469 247.7344,168.0781 L247.7344,169.1719 Q247.7344,170.4063 248.625,171.2344 Q249.5156,172.0469 251.1094,172.0469 Q252.0469,172.0469 252.7031,171.7969 Q253.0938,171.6406 253.5156,171.2031 Q253.7813,170.9375 253.9219,170.8594 Q254.0781,170.7813 254.2813,170.7813 Q254.6094,170.7813 254.8594,171.0469 Q255.125,171.2969 255.125,171.6406 Q255.125,171.9844 254.7813,172.3906 Q254.2813,172.9688 253.4844,173.2969 Q252.4063,173.75 251.1094,173.75 Q249.5938,173.75 248.3906,173.125 Q247.4063,172.625 246.7188,171.5625 Q246.0313,170.4844 246.0313,169.2031 L246.0313,168.0469 Q246.0313,166.7188 246.6406,165.5781 Q247.2656,164.4219 248.3594,163.8125 Q249.4531,163.1875 250.6875,163.1875 Q251.4219,163.1875 252.0625,163.3594 Q252.7188,163.5156 253.2656,163.875 Z " fill="#000000"/><text fill="#000000" font-family="sans-serif" font-size="14" lengthAdjust="spacing" textLength="132" x="264.5" y="173.7969">CargoTransportation</text><line style="stroke:#181818;stroke-width:0.5;" x1="236.5" x2="398.5" y1="184" y2="184"/><line style="stroke:#181818;stroke-width:0.5;" x1="236.5" x2="398.5" y1="192" y2="192"/><ellipse cx="246.5" cy="206.8105" fill="#84BE84" rx="3" ry="3" style="stroke:#038048;stroke-width:1.0;"/><text fill="#000000" font-family="sans-serif" font-size="14" lengthAdjust="spacing" textLength="99" x="255.5" y="211.1074">Loading() : void</text><ellipse cx="246.5" cy="225.4316" fill="#84BE84" rx="3" ry="3" style="stroke:#038048;stroke-width:1.0;"/><text fill="#000000" font-family="sans-serif" font-size="14" lengthAdjust="spacing" textLength="111" x="255.5" y="229.7285">Unloading() : void</text></g><!--class ATransport--><g id="elem_ATransport"><rect codeLine="21" fill="#F1F1F1" height="85.2422" id="ATransport" rx="2.5" ry="2.5" style="stroke:#181818;stroke-width:0.5;" width="286" x="434.5" y="152"/><ellipse cx="537.75" cy="168" fill="#A9DCDF" rx="11" ry="11" style="stroke:#181818;stroke-width:1.0;"/><path d="M539.9375,169.7656 L535.7969,169.7656 L535.375,170.7969 L535.7969,170.7969 Q536.4063,170.7969 536.6719,171.0313 Q536.9375,171.2656 536.9375,171.6563 Q536.9375,172.0313 536.6719,172.2656 Q536.4063,172.5 535.7969,172.5 L533.5,172.5 Q532.8906,172.5 532.6406,172.2656 Q532.375,172.0313 532.375,171.6406 Q532.375,171.2656 532.6563,171.0313 Q532.9219,170.7813 533.5469,170.7969 L536.2188,164.1406 L535.1094,164.1406 Q534.5,164.1406 534.2344,163.9063 Q533.9688,163.6719 533.9688,163.2813 Q533.9688,162.9063 534.2344,162.6719 Q534.5,162.4375 535.1094,162.4375 L538.7813,162.4375 L542.1719,170.7969 Q542.7656,170.7969 542.9531,170.9375 Q543.3438,171.2031 543.3438,171.6563 Q543.3438,172.0313 543.0781,172.2656 Q542.8281,172.5 542.2188,172.5 L539.9219,172.5 Q539.3125,172.5 539.0469,172.2656 Q538.7813,172.0313 538.7813,171.6406 Q538.7813,171.2656 539.0469,171.0313 Q539.3125,170.7969 539.9219,170.7969 L540.3438,170.7969 L539.9375,169.7656 Z M539.2188,168.0625 L537.8594,164.6875 L536.4844,168.0625 L539.2188,168.0625 Z " fill="#000000"/><text fill="#000000" font-family="sans-serif" font-size="14" font-style="italic" lengthAdjust="spacing" textLength="71" x="558.25" y="173.7969">ATransport</text><line style="stroke:#181818;stroke-width:0.5;" x1="435.5" x2="719.5" y1="184" y2="184"/><ellipse cx="445.5" cy="198.8105" fill="none" rx="3" ry="3" style="stroke:#038048;stroke-width:1.0;"/><text fill="#000000" font-family="sans-serif" font-size="14" lengthAdjust="spacing" textLength="260" x="454.5" y="203.1074">typeTransportation : ITypeTransportation</text><line style="stroke:#181818;stroke-width:0.5;" x1="435.5" x2="719.5" y1="210.6211" y2="210.6211"/><ellipse cx="445.5" cy="225.4316" fill="#84BE84" rx="3" ry="3" style="stroke:#038048;stroke-width:1.0;"/><text fill="#000000" font-family="sans-serif" font-size="14" font-style="italic" lengthAdjust="spacing" textLength="81" x="454.5" y="229.7285">Move() : void</text></g><!--class MotorT--><g id="elem_MotorT"><rect codeLine="27" fill="#F1F1F1" height="85.2422" id="MotorT" rx="2.5" ry="2.5" style="stroke:#181818;stroke-width:0.5;" width="341" x="223" y="297"/><ellipse cx="366.25" cy="313" fill="#A9DCDF" rx="11" ry="11" style="stroke:#181818;stroke-width:1.0;"/><path d="M368.4375,314.7656 L364.2969,314.7656 L363.875,315.7969 L364.2969,315.7969 Q364.9063,315.7969 365.1719,316.0313 Q365.4375,316.2656 365.4375,316.6563 Q365.4375,317.0313 365.1719,317.2656 Q364.9063,317.5 364.2969,317.5 L362,317.5 Q361.3906,317.5 361.1406,317.2656 Q360.875,317.0313 360.875,316.6406 Q360.875,316.2656 361.1563,316.0313 Q361.4219,315.7813 362.0469,315.7969 L364.7188,309.1406 L363.6094,309.1406 Q363,309.1406 362.7344,308.9063 Q362.4688,308.6719 362.4688,308.2813 Q362.4688,307.9063 362.7344,307.6719 Q363,307.4375 363.6094,307.4375 L367.2813,307.4375 L370.6719,315.7969 Q371.2656,315.7969 371.4531,315.9375 Q371.8438,316.2031 371.8438,316.6563 Q371.8438,317.0313 371.5781,317.2656 Q371.3281,317.5 370.7188,317.5 L368.4219,317.5 Q367.8125,317.5 367.5469,317.2656 Q367.2813,317.0313 367.2813,316.6406 Q367.2813,316.2656 367.5469,316.0313 Q367.8125,315.7969 368.4219,315.7969 L368.8438,315.7969 L368.4375,314.7656 Z M367.7188,313.0625 L366.3594,309.6875 L364.9844,313.0625 L367.7188,313.0625 Z " fill="#000000"/><text fill="#000000" font-family="sans-serif" font-size="14" font-style="italic" lengthAdjust="spacing" textLength="46" x="386.75" y="318.7969">MotorT</text><line style="stroke:#181818;stroke-width:0.5;" x1="224" x2="563" y1="329" y2="329"/><line style="stroke:#181818;stroke-width:0.5;" x1="224" x2="563" y1="337" y2="337"/><ellipse cx="234" cy="351.8105" fill="#84BE84" rx="3" ry="3" style="stroke:#038048;stroke-width:1.0;"/><text fill="#000000" font-family="sans-serif" font-size="14" lengthAdjust="spacing" textLength="315" x="243" y="356.1074">MotorT(typeTransportation : ITypeTransportation)</text><ellipse cx="234" cy="370.4316" fill="#84BE84" rx="3" ry="3" style="stroke:#038048;stroke-width:1.0;"/><text fill="#000000" font-family="sans-serif" font-size="14" lengthAdjust="spacing" textLength="82" x="243" y="374.7285">Move() : void</text></g><!--class AirT--><g id="elem_AirT"><rect codeLine="33" fill="#F1F1F1" height="85.2422" id="AirT" rx="2.5" ry="2.5" style="stroke:#181818;stroke-width:0.5;" width="322" x="599.5" y="297"/><ellipse cx="743.25" cy="313" fill="#A9DCDF" rx="11" ry="11" style="stroke:#181818;stroke-width:1.0;"/><path d="M745.4375,314.7656 L741.2969,314.7656 L740.875,315.7969 L741.2969,315.7969 Q741.9063,315.7969 742.1719,316.0313 Q742.4375,316.2656 742.4375,316.6563 Q742.4375,317.0313 742.1719,317.2656 Q741.9063,317.5 741.2969,317.5 L739,317.5 Q738.3906,317.5 738.1406,317.2656 Q737.875,317.0313 737.875,316.6406 Q737.875,316.2656 738.1563,316.0313 Q738.4219,315.7813 739.0469,315.7969 L741.7188,309.1406 L740.6094,309.1406 Q740,309.1406 739.7344,308.9063 Q739.4688,308.6719 739.4688,308.2813 Q739.4688,307.9063 739.7344,307.6719 Q740,307.4375 740.6094,307.4375 L744.2813,307.4375 L747.6719,315.7969 Q748.2656,315.7969 748.4531,315.9375 Q748.8438,316.2031 748.8438,316.6563 Q748.8438,317.0313 748.5781,317.2656 Q748.3281,317.5 747.7188,317.5 L745.4219,317.5 Q744.8125,317.5 744.5469,317.2656 Q744.2813,317.0313 744.2813,316.6406 Q744.2813,316.2656 744.5469,316.0313 Q744.8125,315.7969 745.4219,315.7969 L745.8438,315.7969 L745.4375,314.7656 Z M744.7188,313.0625 L743.3594,309.6875 L741.9844,313.0625 L744.7188,313.0625 Z " fill="#000000"/><text fill="#000000" font-family="sans-serif" font-size="14" font-style="italic" lengthAdjust="spacing" textLength="26" x="763.75" y="318.7969">AirT</text><line style="stroke:#181818;stroke-width:0.5;" x1="600.5" x2="920.5" y1="329" y2="329"/><line style="stroke:#181818;stroke-width:0.5;" x1="600.5" x2="920.5" y1="337" y2="337"/><ellipse cx="610.5" cy="351.8105" fill="#84BE84" rx="3" ry="3" style="stroke:#038048;stroke-width:1.0;"/><text fill="#000000" font-family="sans-serif" font-size="14" lengthAdjust="spacing" textLength="296" x="619.5" y="356.1074">AirT(typeTransportation : ITypeTransportation)</text><ellipse cx="610.5" cy="370.4316" fill="#84BE84" rx="3" ry="3" style="stroke:#038048;stroke-width:1.0;"/><text fill="#000000" font-family="sans-serif" font-size="14" lengthAdjust="spacing" textLength="82" x="619.5" y="374.7285">Move() : void</text></g><!--reverse link ITypeTransportation to PassengerTransportation--><g id="link_ITypeTransportation_PassengerTransportation"><path codeLine="8" d="M238.67,103.17 C214.66,119.22 188.61,136.63 165.84,151.84 " fill="none" id="ITypeTransportation-backto-PassengerTransportation" style="stroke:#181818;stroke-width:1.0;stroke-dasharray:7.0,7.0;"/><polygon fill="none" points="234.8,97.35,255.31,92.05,242.58,108.99,234.8,97.35" style="stroke:#181818;stroke-width:1.0;"/></g><!--reverse link ITypeTransportation to CargoTransportation--><g id="link_ITypeTransportation_CargoTransportation"><path codeLine="14" d="M317.5,112.54 C317.5,125.86 317.5,139.63 317.5,151.95 " fill="none" id="ITypeTransportation-backto-CargoTransportation" style="stroke:#181818;stroke-width:1.0;stroke-dasharray:7.0,7.0;"/><polygon fill="none" points="310.5,112.25,317.5,92.25,324.5,112.25,310.5,112.25" style="stroke:#181818;stroke-width:1.0;"/></g><!--reverse link ITypeTransportation to ATransport--><g id="link_ITypeTransportation_ATransport"><path codeLine="20" d="M404.47,98.34 C435.98,115.67 471.29,135.09 501.76,151.84 " fill="none" id="ITypeTransportation-backto-ATransport" style="stroke:#181818;stroke-width:1.0;"/><polygon fill="#181818" points="393.05,92.05,396.379,98.4467,403.564,97.834,400.235,91.4373,393.05,92.05" style="stroke:#181818;stroke-width:1.0;"/></g><!--reverse link ATransport to MotorT--><g id="link_ATransport_MotorT"><path codeLine="26" d="M507.99,249.52 C487.78,265.23 466.02,282.14 446.96,296.95 " fill="none" id="ATransport-backto-MotorT" style="stroke:#181818;stroke-width:1.0;"/><polygon fill="none" points="503.7,243.99,523.78,237.25,512.29,255.05,503.7,243.99" style="stroke:#181818;stroke-width:1.0;"/></g><!--reverse link ATransport to AirT--><g id="link_ATransport_AirT"><path codeLine="32" d="M646.93,249.76 C666.95,265.4 688.46,282.21 707.33,296.95 " fill="none" id="ATransport-backto-AirT" style="stroke:#181818;stroke-width:1.0;"/><polygon fill="none" points="642.37,255.08,630.92,237.25,650.99,244.04,642.37,255.08" style="stroke:#181818;stroke-width:1.0;"/></g><!--SRC=[fP7B2i9034NtynNP-QBjlhWHLuA2Y_e1iHthG3ifCx4WrNzNf_YeZgYu2paavvBqjioLZQEeAb3phYp2bCeeBT3Q85EO6oo5K9gbsM0gOPRiAvaOrBOYmyYAD3HY10skBHjC-GXpmapfl3-066fIMPUkTF7CZqBureuFOGZBSmwfSscwKBY0xwXBv8dnetkA9YUlrqF-Tmw302QtdhYU35hbdJWJlyx7lkTqZx-WMdPoF6mT7yx-1J6PvDdTTfstBVlVwWTkv8DqebwLbvuJNeg_T2S0]--></g></svg>