<?xml version="1.0" encoding="us-ascii" standalone="no"?><svg xmlns="http://www.w3.org/2000/svg" xmlns:xlink="http://www.w3.org/1999/xlink" contentStyleType="text/css" height="371px" preserveAspectRatio="none" style="width:726px;height:371px;background:#FFFFFF;" version="1.1" viewBox="0 0 726 371" width="726px" zoomAndPan="magnify"><defs/><g><!--class Transport--><g id="elem_Transport"><rect codeLine="3" fill="#F1F1F1" height="66.6211" id="Transport" rx="2.5" ry="2.5" style="stroke:#181818;stroke-width:0.5;" width="107" x="329" y="7"/><ellipse cx="349.85" cy="23" fill="#A9DCDF" rx="11" ry="11" style="stroke:#181818;stroke-width:1.0;"/><path d="M352.0375,24.7656 L347.8969,24.7656 L347.475,25.7969 L347.8969,25.7969 Q348.5063,25.7969 348.7719,26.0313 Q349.0375,26.2656 349.0375,26.6563 Q349.0375,27.0313 348.7719,27.2656 Q348.5063,27.5 347.8969,27.5 L345.6,27.5 Q344.9906,27.5 344.7406,27.2656 Q344.475,27.0313 344.475,26.6406 Q344.475,26.2656 344.7563,26.0313 Q345.0219,25.7813 345.6469,25.7969 L348.3188,19.1406 L347.2094,19.1406 Q346.6,19.1406 346.3344,18.9063 Q346.0688,18.6719 346.0688,18.2813 Q346.0688,17.9063 346.3344,17.6719 Q346.6,17.4375 347.2094,17.4375 L350.8813,17.4375 L354.2719,25.7969 Q354.8656,25.7969 355.0531,25.9375 Q355.4438,26.2031 355.4438,26.6563 Q355.4438,27.0313 355.1781,27.2656 Q354.9281,27.5 354.3188,27.5 L352.0219,27.5 Q351.4125,27.5 351.1469,27.2656 Q350.8813,27.0313 350.8813,26.6406 Q350.8813,26.2656 351.1469,26.0313 Q351.4125,25.7969 352.0219,25.7969 L352.4438,25.7969 L352.0375,24.7656 Z M351.3188,23.0625 L349.9594,19.6875 L348.5844,23.0625 L351.3188,23.0625 Z " fill="#000000"/><text fill="#000000" font-family="sans-serif" font-size="14" font-style="italic" lengthAdjust="spacing" textLength="62" x="365.15" y="28.7969">Transport</text><line style="stroke:#181818;stroke-width:0.5;" x1="330" x2="435" y1="39" y2="39"/><line style="stroke:#181818;stroke-width:0.5;" x1="330" x2="435" y1="47" y2="47"/><ellipse cx="340" cy="61.8105" fill="#84BE84" rx="3" ry="3" style="stroke:#038048;stroke-width:1.0;"/><text fill="#000000" font-family="sans-serif" font-size="14" font-style="italic" lengthAdjust="spacing" textLength="81" x="349" y="66.1074">Move() : void</text></g><!--class MotorTransport--><g id="elem_MotorTransport"><rect codeLine="8" fill="#F1F1F1" height="66.6211" id="MotorTransport" rx="2.5" ry="2.5" style="stroke:#181818;stroke-width:0.5;" width="131" x="239" y="143"/><ellipse cx="254" cy="159" fill="#A9DCDF" rx="11" ry="11" style="stroke:#181818;stroke-width:1.0;"/><path d="M256.1875,160.7656 L252.0469,160.7656 L251.625,161.7969 L252.0469,161.7969 Q252.6563,161.7969 252.9219,162.0313 Q253.1875,162.2656 253.1875,162.6563 Q253.1875,163.0313 252.9219,163.2656 Q252.6563,163.5 252.0469,163.5 L249.75,163.5 Q249.1406,163.5 248.8906,163.2656 Q248.625,163.0313 248.625,162.6406 Q248.625,162.2656 248.9063,162.0313 Q249.1719,161.7813 249.7969,161.7969 L252.4688,155.1406 L251.3594,155.1406 Q250.75,155.1406 250.4844,154.9063 Q250.2188,154.6719 250.2188,154.2813 Q250.2188,153.9063 250.4844,153.6719 Q250.75,153.4375 251.3594,153.4375 L255.0313,153.4375 L258.4219,161.7969 Q259.0156,161.7969 259.2031,161.9375 Q259.5938,162.2031 259.5938,162.6563 Q259.5938,163.0313 259.3281,163.2656 Q259.0781,163.5 258.4688,163.5 L256.1719,163.5 Q255.5625,163.5 255.2969,163.2656 Q255.0313,163.0313 255.0313,162.6406 Q255.0313,162.2656 255.2969,162.0313 Q255.5625,161.7969 256.1719,161.7969 L256.5938,161.7969 L256.1875,160.7656 Z M255.4688,159.0625 L254.1094,155.6875 L252.7344,159.0625 L255.4688,159.0625 Z " fill="#000000"/><text fill="#000000" font-family="sans-serif" font-size="14" font-style="italic" lengthAdjust="spacing" textLength="99" x="268" y="164.7969">MotorTransport</text><line style="stroke:#181818;stroke-width:0.5;" x1="240" x2="369" y1="175" y2="175"/><line style="stroke:#181818;stroke-width:0.5;" x1="240" x2="369" y1="183" y2="183"/><ellipse cx="250" cy="197.8105" fill="#84BE84" rx="3" ry="3" style="stroke:#038048;stroke-width:1.0;"/><text fill="#000000" font-family="sans-serif" font-size="14" lengthAdjust="spacing" textLength="82" x="259" y="202.1074">Move() : void</text></g><!--class AirTransport--><g id="elem_AirTransport"><rect codeLine="13" fill="#F1F1F1" height="66.6211" id="AirTransport" rx="2.5" ry="2.5" style="stroke:#181818;stroke-width:0.5;" width="111" x="405" y="143"/><ellipse cx="420" cy="159" fill="#A9DCDF" rx="11" ry="11" style="stroke:#181818;stroke-width:1.0;"/><path d="M422.1875,160.7656 L418.0469,160.7656 L417.625,161.7969 L418.0469,161.7969 Q418.6563,161.7969 418.9219,162.0313 Q419.1875,162.2656 419.1875,162.6563 Q419.1875,163.0313 418.9219,163.2656 Q418.6563,163.5 418.0469,163.5 L415.75,163.5 Q415.1406,163.5 414.8906,163.2656 Q414.625,163.0313 414.625,162.6406 Q414.625,162.2656 414.9063,162.0313 Q415.1719,161.7813 415.7969,161.7969 L418.4688,155.1406 L417.3594,155.1406 Q416.75,155.1406 416.4844,154.9063 Q416.2188,154.6719 416.2188,154.2813 Q416.2188,153.9063 416.4844,153.6719 Q416.75,153.4375 417.3594,153.4375 L421.0313,153.4375 L424.4219,161.7969 Q425.0156,161.7969 425.2031,161.9375 Q425.5938,162.2031 425.5938,162.6563 Q425.5938,163.0313 425.3281,163.2656 Q425.0781,163.5 424.4688,163.5 L422.1719,163.5 Q421.5625,163.5 421.2969,163.2656 Q421.0313,163.0313 421.0313,162.6406 Q421.0313,162.2656 421.2969,162.0313 Q421.5625,161.7969 422.1719,161.7969 L422.5938,161.7969 L422.1875,160.7656 Z M421.4688,159.0625 L420.1094,155.6875 L418.7344,159.0625 L421.4688,159.0625 Z " fill="#000000"/><text fill="#000000" font-family="sans-serif" font-size="14" font-style="italic" lengthAdjust="spacing" textLength="79" x="434" y="164.7969">AirTransport</text><line style="stroke:#181818;stroke-width:0.5;" x1="406" x2="515" y1="175" y2="175"/><line style="stroke:#181818;stroke-width:0.5;" x1="406" x2="515" y1="183" y2="183"/><ellipse cx="416" cy="197.8105" fill="#84BE84" rx="3" ry="3" style="stroke:#038048;stroke-width:1.0;"/><text fill="#000000" font-family="sans-serif" font-size="14" lengthAdjust="spacing" textLength="82" x="425" y="202.1074">Move() : void</text></g><!--class ICargoTransportation--><g id="elem_ICargoTransportation"><rect codeLine="17" fill="#F1F1F1" height="85.2422" id="ICargoTransportation" rx="2.5" ry="2.5" style="stroke:#181818;stroke-width:0.5;" width="168" x="551.5" y="134"/><ellipse cx="566.5" cy="150" fill="#B4A7E5" rx="11" ry="11" style="stroke:#181818;stroke-width:1.0;"/><path d="M567.4531,146.6406 L567.4531,153.2969 L569.1719,153.2969 Q569.7813,153.2969 570.0469,153.5313 Q570.3125,153.7656 570.3125,154.1563 Q570.3125,154.5313 570.0469,154.7656 Q569.7813,155 569.1719,155 L564.0313,155 Q563.4219,155 563.1563,154.7656 Q562.8906,154.5313 562.8906,154.1406 Q562.8906,153.7656 563.1563,153.5313 Q563.4219,153.2969 564.0313,153.2969 L565.75,153.2969 L565.75,146.6406 L564.0313,146.6406 Q563.4219,146.6406 563.1563,146.4063 Q562.8906,146.1719 562.8906,145.7813 Q562.8906,145.4063 563.1563,145.1719 Q563.4219,144.9375 564.0313,144.9375 L569.1719,144.9375 Q569.7813,144.9375 570.0469,145.1719 Q570.3125,145.4063 570.3125,145.7813 Q570.3125,146.1719 570.0469,146.4063 Q569.7813,146.6406 569.1719,146.6406 L567.4531,146.6406 Z " fill="#000000"/><text fill="#000000" font-family="sans-serif" font-size="14" font-style="italic" lengthAdjust="spacing" textLength="136" x="580.5" y="155.7969">ICargoTransportation</text><line style="stroke:#181818;stroke-width:0.5;" x1="552.5" x2="718.5" y1="166" y2="166"/><line style="stroke:#181818;stroke-width:0.5;" x1="552.5" x2="718.5" y1="174" y2="174"/><ellipse cx="562.5" cy="188.8105" fill="#84BE84" rx="3" ry="3" style="stroke:#038048;stroke-width:1.0;"/><text fill="#000000" font-family="sans-serif" font-size="14" font-style="italic" lengthAdjust="spacing" textLength="98" x="571.5" y="193.1074">Loading() : void</text><ellipse cx="562.5" cy="207.4316" fill="#84BE84" rx="3" ry="3" style="stroke:#038048;stroke-width:1.0;"/><text fill="#000000" font-family="sans-serif" font-size="14" font-style="italic" lengthAdjust="spacing" textLength="111" x="571.5" y="211.7285">Unloading() : void</text></g><!--class IPassengerTransportation--><g id="elem_IPassengerTransportation"><rect codeLine="22" fill="#F1F1F1" height="85.2422" id="IPassengerTransportation" rx="2.5" ry="2.5" style="stroke:#181818;stroke-width:0.5;" width="197" x="7" y="134"/><ellipse cx="22" cy="150" fill="#B4A7E5" rx="11" ry="11" style="stroke:#181818;stroke-width:1.0;"/><path d="M22.9531,146.6406 L22.9531,153.2969 L24.6719,153.2969 Q25.2813,153.2969 25.5469,153.5313 Q25.8125,153.7656 25.8125,154.1563 Q25.8125,154.5313 25.5469,154.7656 Q25.2813,155 24.6719,155 L19.5313,155 Q18.9219,155 18.6563,154.7656 Q18.3906,154.5313 18.3906,154.1406 Q18.3906,153.7656 18.6563,153.5313 Q18.9219,153.2969 19.5313,153.2969 L21.25,153.2969 L21.25,146.6406 L19.5313,146.6406 Q18.9219,146.6406 18.6563,146.4063 Q18.3906,146.1719 18.3906,145.7813 Q18.3906,145.4063 18.6563,145.1719 Q18.9219,144.9375 19.5313,144.9375 L24.6719,144.9375 Q25.2813,144.9375 25.5469,145.1719 Q25.8125,145.4063 25.8125,145.7813 Q25.8125,146.1719 25.5469,146.4063 Q25.2813,146.6406 24.6719,146.6406 L22.9531,146.6406 Z " fill="#000000"/><text fill="#000000" font-family="sans-serif" font-size="14" font-style="italic" lengthAdjust="spacing" textLength="165" x="36" y="155.7969">IPassengerTransportation</text><line style="stroke:#181818;stroke-width:0.5;" x1="8" x2="203" y1="166" y2="166"/><line style="stroke:#181818;stroke-width:0.5;" x1="8" x2="203" y1="174" y2="174"/><ellipse cx="18" cy="188.8105" fill="#84BE84" rx="3" ry="3" style="stroke:#038048;stroke-width:1.0;"/><text fill="#000000" font-family="sans-serif" font-size="14" font-style="italic" lengthAdjust="spacing" textLength="104" x="27" y="193.1074">Boarding() : void</text><ellipse cx="18" cy="207.4316" fill="#84BE84" rx="3" ry="3" style="stroke:#038048;stroke-width:1.0;"/><text fill="#000000" font-family="sans-serif" font-size="14" font-style="italic" lengthAdjust="spacing" textLength="121" x="27" y="211.7285">Unboarding() : void</text></g><!--class Bus--><g id="elem_Bus"><rect codeLine="29" fill="#F1F1F1" height="85.2422" id="Bus" rx="2.5" ry="2.5" style="stroke:#181818;stroke-width:0.5;" width="147" x="32" y="279"/><ellipse cx="89.25" cy="295" fill="#ADD1B2" rx="11" ry="11" style="stroke:#181818;stroke-width:1.0;"/><path d="M92.0156,290.875 Q92.1719,290.6563 92.3594,290.5469 Q92.5469,290.4375 92.7656,290.4375 Q93.1406,290.4375 93.375,290.7031 Q93.6094,290.9531 93.6094,291.5625 L93.6094,293.0156 Q93.6094,293.625 93.375,293.8906 Q93.1406,294.1563 92.7656,294.1563 Q92.4219,294.1563 92.2188,293.9531 Q92.0156,293.7656 91.9063,293.25 Q91.8594,292.8906 91.6719,292.7031 Q91.3438,292.3281 90.7344,292.1094 Q90.125,291.8906 89.5,291.8906 Q88.7344,291.8906 88.0938,292.2188 Q87.4688,292.5469 86.9688,293.2969 Q86.4844,294.0469 86.4844,295.0781 L86.4844,296.1719 Q86.4844,297.4063 87.375,298.2344 Q88.2656,299.0469 89.8594,299.0469 Q90.7969,299.0469 91.4531,298.7969 Q91.8438,298.6406 92.2656,298.2031 Q92.5313,297.9375 92.6719,297.8594 Q92.8281,297.7813 93.0313,297.7813 Q93.3594,297.7813 93.6094,298.0469 Q93.875,298.2969 93.875,298.6406 Q93.875,298.9844 93.5313,299.3906 Q93.0313,299.9688 92.2344,300.2969 Q91.1563,300.75 89.8594,300.75 Q88.3438,300.75 87.1406,300.125 Q86.1563,299.625 85.4688,298.5625 Q84.7813,297.4844 84.7813,296.2031 L84.7813,295.0469 Q84.7813,293.7188 85.3906,292.5781 Q86.0156,291.4219 87.1094,290.8125 Q88.2031,290.1875 89.4375,290.1875 Q90.1719,290.1875 90.8125,290.3594 Q91.4688,290.5156 92.0156,290.875 Z " fill="#000000"/><text fill="#000000" font-family="sans-serif" font-size="14" lengthAdjust="spacing" textLength="24" x="109.75" y="300.7969">Bus</text><line style="stroke:#181818;stroke-width:0.5;" x1="33" x2="178" y1="311" y2="311"/><line style="stroke:#181818;stroke-width:0.5;" x1="33" x2="178" y1="319" y2="319"/><ellipse cx="43" cy="333.8105" fill="#84BE84" rx="3" ry="3" style="stroke:#038048;stroke-width:1.0;"/><text fill="#000000" font-family="sans-serif" font-size="14" lengthAdjust="spacing" textLength="105" x="52" y="338.1074">Boarding() : void</text><ellipse cx="43" cy="352.4316" fill="#84BE84" rx="3" ry="3" style="stroke:#038048;stroke-width:1.0;"/><text fill="#000000" font-family="sans-serif" font-size="14" lengthAdjust="spacing" textLength="121" x="52" y="356.7285">Unboarding() : void</text></g><!--class Truck--><g id="elem_Truck"><rect codeLine="36" fill="#F1F1F1" height="85.2422" id="Truck" rx="2.5" ry="2.5" style="stroke:#181818;stroke-width:0.5;" width="137" x="396" y="279"/><ellipse cx="442.25" cy="295" fill="#ADD1B2" rx="11" ry="11" style="stroke:#181818;stroke-width:1.0;"/><path d="M445.0156,290.875 Q445.1719,290.6563 445.3594,290.5469 Q445.5469,290.4375 445.7656,290.4375 Q446.1406,290.4375 446.375,290.7031 Q446.6094,290.9531 446.6094,291.5625 L446.6094,293.0156 Q446.6094,293.625 446.375,293.8906 Q446.1406,294.1563 445.7656,294.1563 Q445.4219,294.1563 445.2188,293.9531 Q445.0156,293.7656 444.9063,293.25 Q444.8594,292.8906 444.6719,292.7031 Q444.3438,292.3281 443.7344,292.1094 Q443.125,291.8906 442.5,291.8906 Q441.7344,291.8906 441.0938,292.2188 Q440.4688,292.5469 439.9688,293.2969 Q439.4844,294.0469 439.4844,295.0781 L439.4844,296.1719 Q439.4844,297.4063 440.375,298.2344 Q441.2656,299.0469 442.8594,299.0469 Q443.7969,299.0469 444.4531,298.7969 Q444.8438,298.6406 445.2656,298.2031 Q445.5313,297.9375 445.6719,297.8594 Q445.8281,297.7813 446.0313,297.7813 Q446.3594,297.7813 446.6094,298.0469 Q446.875,298.2969 446.875,298.6406 Q446.875,298.9844 446.5313,299.3906 Q446.0313,299.9688 445.2344,300.2969 Q444.1563,300.75 442.8594,300.75 Q441.3438,300.75 440.1406,300.125 Q439.1563,299.625 438.4688,298.5625 Q437.7813,297.4844 437.7813,296.2031 L437.7813,295.0469 Q437.7813,293.7188 438.3906,292.5781 Q439.0156,291.4219 440.1094,290.8125 Q441.2031,290.1875 442.4375,290.1875 Q443.1719,290.1875 443.8125,290.3594 Q444.4688,290.5156 445.0156,290.875 Z " fill="#000000"/><text fill="#000000" font-family="sans-serif" font-size="14" lengthAdjust="spacing" textLength="36" x="462.75" y="300.7969">Truck</text><line style="stroke:#181818;stroke-width:0.5;" x1="397" x2="532" y1="311" y2="311"/><line style="stroke:#181818;stroke-width:0.5;" x1="397" x2="532" y1="319" y2="319"/><ellipse cx="407" cy="333.8105" fill="#84BE84" rx="3" ry="3" style="stroke:#038048;stroke-width:1.0;"/><text fill="#000000" font-family="sans-serif" font-size="14" lengthAdjust="spacing" textLength="99" x="416" y="338.1074">Loading() : void</text><ellipse cx="407" cy="352.4316" fill="#84BE84" rx="3" ry="3" style="stroke:#038048;stroke-width:1.0;"/><text fill="#000000" font-family="sans-serif" font-size="14" lengthAdjust="spacing" textLength="111" x="416" y="356.7285">Unloading() : void</text></g><!--class AirBus--><g id="elem_AirBus"><rect codeLine="44" fill="#F1F1F1" height="85.2422" id="AirBus" rx="2.5" ry="2.5" style="stroke:#181818;stroke-width:0.5;" width="147" x="214" y="279"/><ellipse cx="262.75" cy="295" fill="#ADD1B2" rx="11" ry="11" style="stroke:#181818;stroke-width:1.0;"/><path d="M265.5156,290.875 Q265.6719,290.6563 265.8594,290.5469 Q266.0469,290.4375 266.2656,290.4375 Q266.6406,290.4375 266.875,290.7031 Q267.1094,290.9531 267.1094,291.5625 L267.1094,293.0156 Q267.1094,293.625 266.875,293.8906 Q266.6406,294.1563 266.2656,294.1563 Q265.9219,294.1563 265.7188,293.9531 Q265.5156,293.7656 265.4063,293.25 Q265.3594,292.8906 265.1719,292.7031 Q264.8438,292.3281 264.2344,292.1094 Q263.625,291.8906 263,291.8906 Q262.2344,291.8906 261.5938,292.2188 Q260.9688,292.5469 260.4688,293.2969 Q259.9844,294.0469 259.9844,295.0781 L259.9844,296.1719 Q259.9844,297.4063 260.875,298.2344 Q261.7656,299.0469 263.3594,299.0469 Q264.2969,299.0469 264.9531,298.7969 Q265.3438,298.6406 265.7656,298.2031 Q266.0313,297.9375 266.1719,297.8594 Q266.3281,297.7813 266.5313,297.7813 Q266.8594,297.7813 267.1094,298.0469 Q267.375,298.2969 267.375,298.6406 Q267.375,298.9844 267.0313,299.3906 Q266.5313,299.9688 265.7344,300.2969 Q264.6563,300.75 263.3594,300.75 Q261.8438,300.75 260.6406,300.125 Q259.6563,299.625 258.9688,298.5625 Q258.2813,297.4844 258.2813,296.2031 L258.2813,295.0469 Q258.2813,293.7188 258.8906,292.5781 Q259.5156,291.4219 260.6094,290.8125 Q261.7031,290.1875 262.9375,290.1875 Q263.6719,290.1875 264.3125,290.3594 Q264.9688,290.5156 265.5156,290.875 Z " fill="#000000"/><text fill="#000000" font-family="sans-serif" font-size="14" lengthAdjust="spacing" textLength="41" x="283.25" y="300.7969">AirBus</text><line style="stroke:#181818;stroke-width:0.5;" x1="215" x2="360" y1="311" y2="311"/><line style="stroke:#181818;stroke-width:0.5;" x1="215" x2="360" y1="319" y2="319"/><ellipse cx="225" cy="333.8105" fill="#84BE84" rx="3" ry="3" style="stroke:#038048;stroke-width:1.0;"/><text fill="#000000" font-family="sans-serif" font-size="14" lengthAdjust="spacing" textLength="105" x="234" y="338.1074">Boarding() : void</text><ellipse cx="225" cy="352.4316" fill="#84BE84" rx="3" ry="3" style="stroke:#038048;stroke-width:1.0;"/><text fill="#000000" font-family="sans-serif" font-size="14" lengthAdjust="spacing" textLength="121" x="234" y="356.7285">Unboarding() : void</text></g><!--class CargoPlane--><g id="elem_CargoPlane"><rect codeLine="51" fill="#F1F1F1" height="85.2422" id="CargoPlane" rx="2.5" ry="2.5" style="stroke:#181818;stroke-width:0.5;" width="137" x="568" y="279"/><ellipse cx="596.5" cy="295" fill="#ADD1B2" rx="11" ry="11" style="stroke:#181818;stroke-width:1.0;"/><path d="M599.2656,290.875 Q599.4219,290.6563 599.6094,290.5469 Q599.7969,290.4375 600.0156,290.4375 Q600.3906,290.4375 600.625,290.7031 Q600.8594,290.9531 600.8594,291.5625 L600.8594,293.0156 Q600.8594,293.625 600.625,293.8906 Q600.3906,294.1563 600.0156,294.1563 Q599.6719,294.1563 599.4688,293.9531 Q599.2656,293.7656 599.1563,293.25 Q599.1094,292.8906 598.9219,292.7031 Q598.5938,292.3281 597.9844,292.1094 Q597.375,291.8906 596.75,291.8906 Q595.9844,291.8906 595.3438,292.2188 Q594.7188,292.5469 594.2188,293.2969 Q593.7344,294.0469 593.7344,295.0781 L593.7344,296.1719 Q593.7344,297.4063 594.625,298.2344 Q595.5156,299.0469 597.1094,299.0469 Q598.0469,299.0469 598.7031,298.7969 Q599.0938,298.6406 599.5156,298.2031 Q599.7813,297.9375 599.9219,297.8594 Q600.0781,297.7813 600.2813,297.7813 Q600.6094,297.7813 600.8594,298.0469 Q601.125,298.2969 601.125,298.6406 Q601.125,298.9844 600.7813,299.3906 Q600.2813,299.9688 599.4844,300.2969 Q598.4063,300.75 597.1094,300.75 Q595.5938,300.75 594.3906,300.125 Q593.4063,299.625 592.7188,298.5625 Q592.0313,297.4844 592.0313,296.2031 L592.0313,295.0469 Q592.0313,293.7188 592.6406,292.5781 Q593.2656,291.4219 594.3594,290.8125 Q595.4531,290.1875 596.6875,290.1875 Q597.4219,290.1875 598.0625,290.3594 Q598.7188,290.5156 599.2656,290.875 Z " fill="#000000"/><text fill="#000000" font-family="sans-serif" font-size="14" lengthAdjust="spacing" textLength="75" x="613.5" y="300.7969">CargoPlane</text><line style="stroke:#181818;stroke-width:0.5;" x1="569" x2="704" y1="311" y2="311"/><line style="stroke:#181818;stroke-width:0.5;" x1="569" x2="704" y1="319" y2="319"/><ellipse cx="579" cy="333.8105" fill="#84BE84" rx="3" ry="3" style="stroke:#038048;stroke-width:1.0;"/><text fill="#000000" font-family="sans-serif" font-size="14" lengthAdjust="spacing" textLength="99" x="588" y="338.1074">Loading() : void</text><ellipse cx="579" cy="352.4316" fill="#84BE84" rx="3" ry="3" style="stroke:#038048;stroke-width:1.0;"/><text fill="#000000" font-family="sans-serif" font-size="14" lengthAdjust="spacing" textLength="111" x="588" y="356.7285">Unloading() : void</text></g><!--reverse link Transport to MotorTransport--><g id="link_Transport_MotorTransport"><path codeLine="7" d="M353.34,91.6 C343.42,108.64 332.59,127.25 323.65,142.59 " fill="none" id="Transport-backto-MotorTransport" style="stroke:#181818;stroke-width:1.0;"/><polygon fill="none" points="347.31,88.04,363.42,74.28,359.41,95.09,347.31,88.04" style="stroke:#181818;stroke-width:1.0;"/></g><!--reverse link Transport to AirTransport--><g id="link_Transport_AirTransport"><path codeLine="12" d="M411.66,91.6 C421.58,108.64 432.41,127.25 441.35,142.59 " fill="none" id="Transport-backto-AirTransport" style="stroke:#181818;stroke-width:1.0;"/><polygon fill="none" points="405.59,95.09,401.58,74.28,417.69,88.04,405.59,95.09" style="stroke:#181818;stroke-width:1.0;"/></g><!--reverse link MotorTransport to Bus--><g id="link_MotorTransport_Bus"><path codeLine="27" d="M242.48,222.07 C217.24,240.2 188.24,261.04 163.44,278.87 " fill="none" id="MotorTransport-backto-Bus" style="stroke:#181818;stroke-width:1.0;"/><polygon fill="none" points="238.52,216.29,258.85,210.31,246.69,227.66,238.52,216.29" style="stroke:#181818;stroke-width:1.0;"/></g><!--reverse link IPassengerTransportation to Bus--><g id="link_IPassengerTransportation_Bus"><path codeLine="28" d="M105.5,239.54 C105.5,252.86 105.5,266.63 105.5,278.95 " fill="none" id="IPassengerTransportation-backto-Bus" style="stroke:#181818;stroke-width:1.0;stroke-dasharray:7.0,7.0;"/><polygon fill="none" points="98.5,239.25,105.5,219.25,112.5,239.25,98.5,239.25" style="stroke:#181818;stroke-width:1.0;"/></g><!--reverse link MotorTransport to Truck--><g id="link_MotorTransport_Truck"><path codeLine="34" d="M356.41,223.9 C376.21,241.59 398.64,261.64 417.92,278.87 " fill="none" id="MotorTransport-backto-Truck" style="stroke:#181818;stroke-width:1.0;"/><polygon fill="none" points="351.45,228.85,341.21,210.31,360.78,218.42,351.45,228.85" style="stroke:#181818;stroke-width:1.0;"/></g><!--reverse link ICargoTransportation to Truck--><g id="link_ICargoTransportation_Truck"><path codeLine="35" d="M570.06,232.22 C551.52,247.73 531.64,264.36 514.19,278.95 " fill="none" id="ICargoTransportation-backto-Truck" style="stroke:#181818;stroke-width:1.0;stroke-dasharray:7.0,7.0;"/><polygon fill="none" points="565.75,226.71,585.58,219.25,574.73,237.45,565.75,226.71" style="stroke:#181818;stroke-width:1.0;"/></g><!--reverse link AirTransport to AirBus--><g id="link_AirTransport_AirBus"><path codeLine="42" d="M405.32,223.11 C383.68,241 359.02,261.38 337.87,278.87 " fill="none" id="AirTransport-backto-AirBus" style="stroke:#181818;stroke-width:1.0;"/><polygon fill="none" points="400.94,217.65,420.81,210.31,409.85,228.44,400.94,217.65" style="stroke:#181818;stroke-width:1.0;"/></g><!--reverse link IPassengerTransportation to AirBus--><g id="link_IPassengerTransportation_AirBus"><path codeLine="43" d="M174.55,231.76 C194.46,247.4 215.86,264.21 234.62,278.95 " fill="none" id="IPassengerTransportation-backto-AirBus" style="stroke:#181818;stroke-width:1.0;stroke-dasharray:7.0,7.0;"/><polygon fill="none" points="170.03,237.11,158.63,219.25,178.68,226.1,170.03,237.11" style="stroke:#181818;stroke-width:1.0;"/></g><!--reverse link AirTransport to CargoPlane--><g id="link_AirTransport_CargoPlane"><path codeLine="49" d="M516.64,223.11 C538.65,241 563.74,261.38 585.26,278.87 " fill="none" id="AirTransport-backto-CargoPlane" style="stroke:#181818;stroke-width:1.0;"/><polygon fill="none" points="511.99,228.35,500.88,210.31,520.81,217.49,511.99,228.35" style="stroke:#181818;stroke-width:1.0;"/></g><!--reverse link ICargoTransportation to CargoPlane--><g id="link_ICargoTransportation_CargoPlane"><path codeLine="50" d="M635.93,239.54 C636.03,252.86 636.12,266.63 636.21,278.95 " fill="none" id="ICargoTransportation-backto-CargoPlane" style="stroke:#181818;stroke-width:1.0;stroke-dasharray:7.0,7.0;"/><polygon fill="none" points="628.93,239.29,635.79,219.25,642.93,239.2,628.93,239.29" style="stroke:#181818;stroke-width:1.0;"/></g><!--SRC=[dLD1Ri8m4Bpx5Rwrg4foHrnAJvLQYGDzmEAugTN46wqtN82_OpbDGe89eZThPpJZ6Q-VVfXhjyookWJBJLMc2gjCbU1SaXie22eXOEUOGB4CSxabiAv6OdaGB_BGeIVvYNlzl91BkKUJYvCG0tDrJ1AFCr8_cygEqQ1zJ_3Lt9QxnE9YnhAcRr1Qlhy15TZJWGtQQRWFXDpOOb0OeL-sdE9ZXus_axQ5fdcNDGBDskok2DvdKbtePjquSTDrTKpJm6YxygTmaPZx0vPRQjIlY9OP35kyMo9_3gQHOkDjYj6JTWjmF-SVgL-BVwIzTWuXD_xJw9d05wJMVHWy5FqC]--></g></svg>